<?xml version="1.0" encoding="iso-8859-1"?>
<!-- Uploaded to: SVG Repo, www.svgrepo.com, Generator: SVG Repo Mixer Tools -->
<svg fill="#000000" height="800px" width="800px" version="1.1" id="Layer_1" xmlns="http://www.w3.org/2000/svg"
     xmlns:xlink="http://www.w3.org/1999/xlink"
     viewBox="0 0 512 512" xml:space="preserve">
<g>
	<g>
		<g>
			<path d="M490.667,341.333v-256c0-23.558-19.109-42.667-42.667-42.667H64c-23.558,0-42.667,19.109-42.667,42.667v256
				C9.551,341.333,0,350.885,0,362.667v64c0,23.558,19.109,42.667,42.667,42.667h426.667c23.558,0,42.667-19.109,42.667-42.667v-64
				C512,350.885,502.449,341.333,490.667,341.333z M64,85.333h384v256H320c-5.658,0-11.084,2.248-15.085,6.248l-15.085,15.085
				h-67.66l-15.085-15.085c-4.001-4.001-9.427-6.248-15.085-6.248H64V85.333z M469.333,426.667H42.667V384h140.497l15.085,15.085
				c4.001,4.001,9.427,6.248,15.085,6.248h85.333c5.658,0,11.084-2.248,15.085-6.248L328.837,384h140.497V426.667z"
                  stroke="white" fill="white"/>
            <path d="M166.62,175.081c-4.459,0-8.085,3.627-8.085,8.085v24.277H126.15v-24.277c0-4.459-3.605-8.085-8.085-8.085
				c-4.459,0-8.085,3.627-8.085,8.085v64.747c0,4.459,3.627,8.085,8.085,8.085c4.48,0,8.085-3.627,8.085-8.085v-24.277h32.384
				v24.277c0,4.459,3.627,8.085,8.085,8.085s8.085-3.627,8.085-8.085v-64.747C174.705,178.707,171.078,175.081,166.62,175.081z"
                  stroke="white" fill="white"/>
            <path d="M198.987,191.273h16.192v56.64c0,4.459,3.627,8.085,8.085,8.085c4.48,0,8.085-3.627,8.085-8.085v-56.64h16.192
				c4.459,0,8.085-3.627,8.085-8.107c0-4.459-3.627-8.085-8.085-8.085h-48.555c-4.459,0-8.085,3.627-8.085,8.085
				C190.901,187.646,194.528,191.273,198.987,191.273z" stroke="white" fill="white"/>
            <path d="M279.904,191.273h16.192v56.64c0,4.459,3.627,8.085,8.085,8.085c4.48,0,8.085-3.627,8.085-8.085v-56.64h16.192
				c4.459,0,8.085-3.627,8.085-8.107c0-4.459-3.627-8.085-8.085-8.085h-48.555c-4.459,0-8.085,3.627-8.085,8.085
				C271.819,187.646,275.445,191.273,279.904,191.273z" stroke="white" fill="white"/>
            <path d="M360.834,255.996c4.459,0,8.085-3.627,8.085-8.085v-20.224h10.112c14.507,0,26.304-11.797,26.304-26.304
				s-11.797-26.304-26.304-26.304h-18.197c-4.48,0-8.107,3.627-8.107,8.085v64.747C352.727,252.369,356.354,255.996,360.834,255.996
				z M368.919,191.27h10.112c5.589,0,10.112,4.523,10.112,10.112c0,5.568-4.523,10.112-10.112,10.112h-10.112V191.27z"
                  stroke="white" fill="white"/>
		</g>
	</g>
</g>
</svg>